# xmcd
#
# Track frame offsets:
# 150
# 18422
# 36182
# 50957
# 65985
# 81065
# 94995
# 115317
# 132962
# 145795
# 163195
# 179197
# 195297
# 209477
# 227707
# 251065
# 269290
# 284320
#
# Disc length: 3958 seconds
#
#
# Revision: 1
# Processed by: cddbd v1.5.1PL2 Copyright (c) Steve Scherf et al.
# Submitted via: FreeRIP 2.945 
#
DISCID=1a0f7412
DTITLE=Various Artist - Die Deutsche Coconuts
DYEAR=1991
DGENRE=Schlager
TTITLE0=Achim Reichel - Aloha Heja He
TTITLE1=De Angelo - Du bist das Feuer
TTITLE2=Michael Holm - Elektrisiert
TTITLE3=Nicki - Hals über Kopf
TTITLE4=Roy Black - Ich träume mich zu Dir
TTITLE5=Patrick Lindner - Ich hätt` Dich sowieso geküsst
TTITLE6=Pur - Lena
TTITLE7=Jule Neigel Band - Heut` Nacht
TTITLE8=Annette Berr - Pferde (All die Worte)
TTITLE9=Pe Werner - Kribbeln im Bauch
TTITLE10=Edo Zanki - Lieber auf und ab
TTITLE11=Wolfgang Ziegler - Hass mich wenn Du kannst
TTITLE12=Hanne Haller - Willkommen im Leben
TTITLE13=G.G. Anderson - Sonnenschein im Blut
TTITLE14=Heinz Rudolf Kunze - Alles gelogen
TTITLE15=Ted Herold - Vergeben, vergessen, vorbei
TTITLE16=Hellmut and Hannelore - La Da Dee La Di Daa
TTITLE17=Die Härte - Tina steht auf GTI
EXTD=Pepi
EXTT0=
EXTT1=
EXTT2=
EXTT3=
EXTT4=
EXTT5=
EXTT6=
EXTT7=
EXTT8=
EXTT9=
EXTT10=
EXTT11=
EXTT12=
EXTT13=
EXTT14=
EXTT15=
EXTT16=
EXTT17=
PLAYORDER=
